<svg width="40" height="36" viewBox="0 0 40 36" fill="none" xmlns="http://www.w3.org/2000/svg">
<path d="M35 5.24985H27.5V2.94634C27.5 1.67365 26.3812 0.642822 25 0.642822H15C13.6188 0.642822 12.5 1.6748 12.5 2.94634V5.24985H5C2.23876 5.24985 0 7.31266 0 9.85688V30.5885C0 33.1328 2.23876 35.1956 5 35.1956H35C37.7612 35.1956 40 33.1328 40 30.5885V9.85688C40 7.31266 37.7612 5.24985 35 5.24985ZM15 4.0981C15 3.46233 15.56 2.94634 16.25 2.94634H23.75C24.44 2.94634 25 3.46233 25 4.0981V5.24985H15V4.0981ZM37.5 30.5885C37.5 31.8601 36.3812 32.892 35 32.892H5C3.61876 32.892 2.5 31.8601 2.5 30.5885V17.9192H15.1763C15.0725 18.29 15 18.6712 15 19.0709C15 21.6152 17.2388 23.678 20 23.678C22.7612 23.678 25 21.6152 25 19.0709C25 18.6712 24.9275 18.2889 24.8238 17.9192H37.5V30.5885ZM17.5 19.0709C17.5 18.6494 17.6325 18.259 17.8463 17.9192H22.1525C22.3675 18.259 22.5 18.6494 22.5 19.0709C22.5 20.3436 21.38 21.3745 20 21.3745C18.6188 21.3745 17.5 20.3436 17.5 19.0709ZM37.5 15.6157H2.5V9.85688C2.5 8.5842 3.61876 7.55337 5 7.55337H35C36.3812 7.55337 37.5 8.5842 37.5 9.85688V15.6157Z" fill="#333"/>
</svg>
