<svg width="645" height="403" viewBox="0 0 645 403" fill="none" xmlns="http://www.w3.org/2000/svg">
<g clip-path="url(#clip0)">
<path d="M490.334 357.84C570.99 357.84 636.375 292.416 636.375 211.712C636.375 131.008 570.99 65.5847 490.334 65.5847C409.678 65.5847 344.293 131.008 344.293 211.712C344.293 292.416 409.678 357.84 490.334 357.84Z" fill="#C4D6CF"/>
<path d="M79.2339 111.609C110.036 111.609 135.006 86.6247 135.006 55.8046C135.006 24.9846 110.036 0 79.2339 0C48.432 0 23.4622 24.9846 23.4622 55.8046C23.4622 86.6247 48.432 111.609 79.2339 111.609Z" fill="#536E90"/>
<path d="M179.278 299.733C259.934 299.733 325.319 234.31 325.319 153.606C325.319 72.902 259.934 7.47852 179.278 7.47852C98.6213 7.47852 33.2365 72.902 33.2365 153.606C33.2365 234.31 98.6213 299.733 179.278 299.733Z" fill="#C4D6CF"/>
<path d="M172.378 307.788C260.973 307.788 332.794 303.925 332.794 299.159C332.794 294.393 260.973 290.529 172.378 290.529C83.7832 290.529 11.9628 294.393 11.9628 299.159C11.9628 303.925 83.7832 307.788 172.378 307.788Z" fill="#3F3D56"/>
<path opacity="0.1" d="M140.18 305.408C206.547 305.408 260.348 302.743 260.348 299.456C260.348 296.169 206.547 293.505 140.18 293.505C73.8132 293.505 20.0122 296.169 20.0122 299.456C20.0122 302.743 73.8132 305.408 140.18 305.408Z" fill="black"/>
<path d="M484.585 368.771C573.18 368.771 645 364.521 645 359.278C645 354.036 573.18 349.786 484.585 349.786C395.99 349.786 324.169 354.036 324.169 359.278C324.169 364.521 395.99 368.771 484.585 368.771Z" fill="#3F3D56"/>
<path opacity="0.1" d="M452.387 366.152C518.753 366.152 572.554 363.221 572.554 359.605C572.554 355.99 518.753 353.059 452.387 353.059C386.02 353.059 332.219 355.99 332.219 359.605C332.219 363.221 386.02 366.152 452.387 366.152Z" fill="black"/>
<path d="M230.506 342.306C287.042 342.306 332.874 339.988 332.874 337.129C332.874 334.269 287.042 331.951 230.506 331.951C173.969 331.951 128.137 334.269 128.137 337.129C128.137 339.988 173.969 342.306 230.506 342.306Z" fill="#3F3D56"/>
<path d="M49.3913 322.368C76.6693 322.368 98.7825 321.249 98.7825 319.87C98.7825 318.49 76.6693 317.372 49.3913 317.372C22.1132 317.372 0 318.49 0 319.87C0 321.249 22.1132 322.368 49.3913 322.368Z" fill="#3F3D56"/>
<path d="M547.9 402.185C598.669 402.185 639.825 400.104 639.825 397.536C639.825 394.968 598.669 392.886 547.9 392.886C497.132 392.886 455.975 394.968 455.975 397.536C455.975 400.104 497.132 402.185 547.9 402.185Z" fill="#3F3D56"/>
<path d="M538.056 249.107H354.067V358.415H538.056V249.107Z" fill="#3F3D56"/>
<path d="M413.289 346.333C436.152 346.333 454.686 327.788 454.686 304.911C454.686 282.035 436.152 263.49 413.289 263.49C390.426 263.49 371.891 282.035 371.891 304.911C371.891 327.788 390.426 346.333 413.289 346.333Z" fill="#536E90"/>
<path d="M481.135 266.366H467.336V280.174H481.135V266.366Z" fill="#6C63FF"/>
<path opacity="0.5" d="M498.384 266.366H484.584V280.174H498.384V266.366Z" fill="#6C63FF"/>
<path opacity="0.2" d="M515.633 266.366H501.833V280.174H515.633V266.366Z" fill="#6C63FF"/>
<path d="M481.135 283.625H467.336V297.433H481.135V283.625Z" fill="#2F2E41"/>
<path opacity="0.5" d="M498.384 283.625H484.584V297.433H498.384V283.625Z" fill="#2F2E41"/>
<path opacity="0.2" d="M515.633 283.625H501.833V297.433H515.633V283.625Z" fill="#2F2E41"/>
<path d="M481.135 300.885H467.336V314.692H481.135V300.885Z" fill="#FF6584"/>
<path opacity="0.5" d="M498.384 300.885H484.584V314.692H498.384V300.885Z" fill="#FF6584"/>
<path opacity="0.2" d="M515.633 300.885H501.833V314.692H515.633V300.885Z" fill="#FF6584"/>
<path opacity="0.5" d="M413.289 263.49V346.333C436.152 346.333 455.836 327.788 455.836 304.911C455.836 282.035 436.152 263.49 413.289 263.49Z" fill="#3F3D56"/>
<path d="M577.442 256.874C577.442 256.874 601.59 267.804 592.966 280.461C584.341 293.118 558.468 317.281 557.893 322.458C557.318 327.636 553.868 332.239 553.868 332.239C553.868 332.239 542.369 320.157 543.519 319.007C544.669 317.856 556.168 306.925 556.743 304.049C557.318 301.172 574.567 278.735 574.567 278.735L559.043 264.928L577.442 256.874Z" fill="#FFB9B9"/>
<path opacity="0.1" d="M577.442 256.874C577.442 256.874 601.59 267.804 592.966 280.461C584.341 293.118 558.468 317.281 557.893 322.458C557.318 327.636 553.868 332.239 553.868 332.239C553.868 332.239 542.369 320.157 543.519 319.007C544.669 317.856 556.168 306.925 556.743 304.049C557.318 301.172 574.567 278.735 574.567 278.735L559.043 264.928L577.442 256.874Z" fill="black"/>
<path d="M546.968 281.037C546.968 281.037 563.642 287.94 562.492 298.871C561.343 309.802 582.616 340.868 582.616 340.868C582.616 340.868 584.916 348.347 584.341 350.648C583.766 352.95 599.29 352.374 599.29 352.374V347.197C599.29 347.197 587.216 326.486 586.066 320.733C584.916 314.98 578.017 292.543 578.017 292.543C578.017 292.543 575.717 272.407 564.217 272.407C560.87 272.407 557.569 273.187 554.575 274.685C551.581 276.182 548.977 278.357 546.968 281.037Z" fill="#FFB9B9"/>
<path d="M547.831 228.971C547.831 228.971 582.329 257.161 581.179 259.463C580.029 261.764 563.355 270.393 560.48 270.969C557.605 271.544 537.264 228.971 537.264 228.971H547.831Z" fill="#2F2E41"/>
<path opacity="0.1" d="M547.831 228.971C547.831 228.971 582.329 257.161 581.179 259.463C580.029 261.764 563.355 270.393 560.48 270.969C557.605 271.544 537.264 228.971 537.264 228.971H547.831Z" fill="black"/>
<path d="M510.458 234.725C510.458 234.725 507.008 250.258 516.208 256.586C525.407 262.915 540.931 287.653 542.656 287.653C544.381 287.653 569.104 274.421 567.955 272.119C566.805 269.818 554.155 249.683 554.155 249.683L550.131 228.396C550.131 228.396 515.058 227.246 510.458 234.725Z" fill="#2F2E41"/>
<path d="M547.831 184.098L553.006 217.465L562.205 241.053C562.205 241.053 576.004 255.435 567.955 256.586C559.905 257.737 555.305 241.053 555.305 241.053L547.831 227.246V184.098Z" fill="#FFB9B9"/>
<path opacity="0.1" d="M547.831 184.098L553.006 217.465L562.205 241.053C562.205 241.053 576.004 255.435 567.955 256.586C559.905 257.737 555.305 241.053 555.305 241.053L547.831 227.246V184.098Z" fill="black"/>
<path d="M528.569 146.99C528.569 146.99 528.569 159.072 524.545 160.222C520.52 161.373 540.644 176.906 540.644 176.906C540.644 176.906 538.344 156.771 546.393 151.593L528.569 146.99Z" fill="#FFB9B9"/>
<path opacity="0.1" d="M528.569 146.99C528.569 146.99 528.569 159.072 524.545 160.222C520.52 161.373 540.644 176.906 540.644 176.906C540.644 176.906 538.344 156.771 546.393 151.593L528.569 146.99Z" fill="black"/>
<path d="M537.769 156.771C545.072 156.771 550.993 150.847 550.993 143.539C550.993 136.231 545.072 130.307 537.769 130.307C530.465 130.307 524.545 136.231 524.545 143.539C524.545 150.847 530.465 156.771 537.769 156.771Z" fill="#FFB9B9"/>
<path d="M538.344 171.153C538.344 171.153 526.27 156.196 524.545 156.771C522.82 157.346 510.171 170.003 509.021 174.03C507.871 178.057 505.571 206.822 507.296 212.575C509.021 218.328 509.021 233.286 508.446 234.437C507.871 235.588 504.421 238.464 507.871 238.464C511.321 238.464 523.395 229.835 531.444 231.561C539.494 233.286 550.418 230.985 550.993 229.835C551.568 228.684 550.418 198.768 550.993 196.467C551.568 194.166 549.843 182.66 549.268 180.358C548.693 178.057 548.693 168.852 542.944 166.551L540.492 166.309L540.355 171.999L538.344 171.153Z" fill="#548FA9"/>
<path d="M513.045 201.069C513.045 201.069 514.195 218.904 522.82 226.383C531.444 233.861 549.843 246.518 550.993 248.819C552.143 251.121 563.067 263.202 565.367 258.024C566.035 256.41 566.195 254.631 565.828 252.923C565.494 251.226 564.817 249.614 563.838 248.188C562.858 246.763 561.598 245.552 560.134 244.631L555.018 241.34L529.719 214.876L528.569 201.069H513.045Z" fill="#FFB9B9"/>
<path d="M546.106 316.993C546.106 316.993 539.494 315.555 537.194 319.582C534.894 323.609 539.494 334.54 539.494 334.54C539.494 334.54 552.718 362.155 555.018 358.703C557.318 355.251 553.293 342.594 553.293 342.594C553.293 342.594 559.043 329.937 556.743 329.362C554.443 328.787 546.106 323.897 546.106 316.993Z" fill="#2F2E41"/>
<path d="M586.641 350.073C586.641 350.073 583.191 348.347 582.616 350.073C582.041 351.799 578.592 360.429 582.616 361.579C586.641 362.73 626.314 363.88 625.164 361.579C624.014 359.278 617.689 356.402 613.664 355.251C609.64 354.1 599.29 345.471 599.29 345.471C599.29 345.471 593.541 352.95 586.641 350.073Z" fill="#2F2E41"/>
<path d="M551.09 133.037C550.842 132.202 550.295 131.488 549.555 131.031C549.593 130.136 549.483 129.242 549.23 128.383C548.385 125.884 546.384 126.027 544.495 124.922C543.676 124.443 543.726 124.019 543.3 123.232C542.741 122.199 541.904 121.345 540.883 120.765C539.672 119.992 538.393 119.197 536.959 119.099C533.947 118.894 531.638 121.728 528.759 122.638C527.49 123.039 526.126 123.056 524.85 123.435C523.575 123.814 522.302 124.719 522.112 126.037C522.024 126.646 522.179 127.27 522.09 127.878C521.913 129.087 520.853 129.934 520.143 130.928C518.574 133.127 518.754 136.233 520.008 138.626C520.273 139.121 520.575 139.595 520.913 140.043C521.018 141.174 521.343 142.273 521.869 143.279C523.124 145.672 525.283 147.46 527.539 148.945C527.354 148.152 527.242 147.343 527.204 146.529C527.172 146.258 527.208 145.983 527.307 145.729C527.558 145.203 528.222 145.063 528.728 144.776C529.776 144.18 530.187 142.86 530.218 141.654C530.248 140.448 529.992 139.24 530.119 138.041C530.124 137.765 530.186 137.493 530.303 137.243C530.419 136.992 530.587 136.769 530.794 136.588C531.181 136.367 531.623 136.262 532.068 136.284C534.216 136.196 536.46 136.157 538.355 135.141C538.966 134.735 539.622 134.402 540.311 134.15C541.921 133.73 543.567 134.859 544.495 136.241C545.423 137.623 545.885 139.268 546.741 140.695C547.597 142.123 549.076 143.396 550.732 143.227C550.825 143.227 550.917 143.208 551.002 143.17C551.087 143.132 551.164 143.076 551.226 143.007C551.297 142.879 551.329 142.732 551.317 142.586L551.41 136.255C551.486 135.172 551.378 134.083 551.09 133.037Z" fill="#2F2E41"/>
<path d="M518.22 171.729C518.22 171.729 530.869 177.482 530.294 189.563C529.719 201.644 533.744 202.795 523.97 203.946C514.195 205.096 511.895 203.946 511.32 205.096C510.746 206.247 507.296 178.632 509.596 175.756C511.895 172.879 518.22 171.729 518.22 171.729Z" fill="#548FA9"/>
<path d="M263.798 74.2143C273.959 74.2143 282.197 65.972 282.197 55.8045C282.197 45.6371 273.959 37.3948 263.798 37.3948C253.636 37.3948 245.399 45.6371 245.399 55.8045C245.399 65.972 253.636 74.2143 263.798 74.2143Z" fill="#2F2E41"/>
<path d="M276.16 257.449L265.81 285.639C265.81 285.639 257.186 292.543 262.36 294.844C267.535 297.145 277.884 292.543 277.884 292.543L285.934 271.832L284.784 257.449H276.16Z" fill="#2F2E41"/>
<path opacity="0.1" d="M276.16 257.449L265.81 285.639C265.81 285.639 257.186 292.543 262.36 294.844C267.535 297.145 277.884 292.543 277.884 292.543L285.934 271.832L284.784 257.449H276.16Z" fill="black"/>
<path d="M277.022 90.3228L285.647 91.4734C285.647 91.4734 289.671 123.115 287.946 125.416C286.222 127.718 277.597 136.922 274.147 134.621C270.697 132.32 277.022 90.3228 277.022 90.3228Z" fill="#3F516B"/>
<path d="M194.514 148.141C194.514 148.141 182.44 153.319 180.14 153.894C177.84 154.469 174.391 160.223 178.415 161.373C182.44 162.524 197.964 151.018 197.964 151.018L194.514 148.141Z" fill="#A0616A"/>
<path d="M280.184 268.955L286.509 292.543C286.509 292.543 287.084 301.172 289.959 301.747C292.833 302.323 301.458 298.871 301.458 297.72C301.458 296.57 298.008 287.365 298.008 287.365C298.008 287.365 298.008 280.461 294.558 277.585C291.109 274.708 288.001 265.072 288.001 265.072L280.184 268.955Z" fill="#2F2E41"/>
<path d="M288.234 214.876C289.395 217.586 289.251 237.244 287.981 250.327C287.366 256.684 286.486 261.488 285.359 262.051L277.12 259.992L273.86 259.175L273.773 252.018L273.285 212.575L263.51 171.729V161.373L288.234 163.674L292.155 169.836L292.259 170.003C292.259 170.003 286.509 210.849 288.234 214.876Z" fill="#2F2E41"/>
<path opacity="0.1" d="M283.059 227.533C284.29 229.38 286.342 240.437 287.981 250.327C287.366 256.684 286.486 261.488 285.359 262.051L277.12 259.992C276.993 259.727 276.867 259.451 276.734 259.175C275.682 256.966 274.693 254.526 273.773 252.018L273.285 212.575L263.51 171.729V161.373L288.234 163.674L292.155 169.836L269.26 168.277L274.435 190.714L280.759 214.301C280.759 214.301 280.759 224.081 283.059 227.533Z" fill="black"/>
<path d="M242.237 138.361C242.237 138.361 234.187 156.195 245.686 180.933C252.802 196.328 259.135 212.073 264.66 228.108C264.66 228.108 268.685 247.093 274.435 259.175C280.184 271.256 279.034 271.832 279.034 271.832L288.234 266.654C288.234 266.654 283.059 230.985 280.759 227.533C278.459 224.081 278.459 214.301 278.459 214.301L272.135 190.714L266.96 168.277L292.259 170.003C292.259 170.003 292.259 137.21 280.759 130.882L242.237 138.361Z" fill="#2F2E41"/>
<path d="M251.723 64.4343C251.723 64.4343 251.723 73.6392 248.849 74.2145C245.974 74.7898 240.224 74.7898 238.499 77.6663C236.774 80.5429 251.723 118.513 251.723 118.513L267.248 108.733L272.422 82.8441C272.422 82.8441 264.948 78.2416 264.948 75.9404V65.5849L251.723 64.4343Z" fill="#A0616A"/>
<path opacity="0.1" d="M251.723 64.4343C251.723 64.4343 251.723 73.6392 248.849 74.2145C245.974 74.7898 240.224 74.7898 238.499 77.6663C236.774 80.5429 251.723 118.513 251.723 118.513L267.248 108.733L272.422 82.8441C272.422 82.8441 264.948 78.2416 264.948 75.9404V65.5849L251.723 64.4343Z" fill="black"/>
<path d="M260.635 74.5021C268.256 74.5021 274.435 68.3204 274.435 60.6948C274.435 53.0692 268.256 46.8875 260.635 46.8875C253.014 46.8875 246.836 53.0692 246.836 60.6948C246.836 68.3204 253.014 74.5021 260.635 74.5021Z" fill="#A0616A"/>
<path d="M253.448 107.007C253.448 107.007 248.274 74.2144 247.124 74.2144C245.974 74.2144 229.875 77.6662 228.725 78.2415C227.575 78.8168 223.55 83.9945 223.55 83.9945L231.6 107.007C231.6 107.007 235.049 123.115 237.349 125.992C239.649 128.868 244.249 136.923 241.949 138.073C239.649 139.224 237.349 140.95 239.649 140.95C241.949 140.95 260.923 137.498 262.073 139.224C263.223 140.95 282.197 132.895 282.197 132.32C282.197 131.745 279.897 104.706 279.897 104.706L285.646 91.4735L268.397 79.3921L253.448 107.007Z" fill="#3F516B"/>
<path d="M229.3 81.1179L223.55 83.9944C223.55 83.9944 207.451 120.814 206.301 121.389C205.151 121.965 199.402 132.895 198.827 135.197C198.252 137.498 197.102 144.977 195.377 146.127C194.452 146.756 193.492 147.332 192.502 147.853C192.502 147.853 195.952 153.606 197.677 153.606C199.402 153.606 205.151 145.552 205.151 145.552C205.151 145.552 217.8 153.606 221.25 147.278C224.7 140.95 233.325 100.678 233.325 100.678L229.3 81.1179Z" fill="#3F516B"/>
<path d="M274.435 98.6649C274.435 98.6649 266.385 79.1045 261.785 81.4057C257.186 83.707 265.235 97.5143 270.41 99.8155L274.435 98.6649Z" fill="#A0616A"/>
<path opacity="0.1" d="M266.385 99.2403L274.452 97.4155L276.16 106.144C276.16 106.144 283.634 119.376 281.909 125.129C280.184 130.882 269.835 140.087 266.385 134.909C262.935 129.731 260.06 121.677 262.36 117.075C264.66 112.472 268.11 101.541 266.385 99.2403Z" fill="black"/>
<path d="M268.11 98.0896L276.177 96.2649L277.884 104.993C277.884 104.993 285.359 118.225 283.634 123.978C281.909 129.731 271.56 138.936 268.11 133.759C264.66 128.581 261.785 120.527 264.085 115.924C266.385 111.322 269.835 100.391 268.11 98.0896Z" fill="#3F516B"/>
<path d="M276.869 57.9225C278.418 54.6136 274.079 49.3089 267.178 46.0739C260.276 42.839 253.426 42.8989 251.877 46.2078C250.328 49.5166 254.666 54.8214 261.568 58.0563C268.469 61.2912 275.32 61.2313 276.869 57.9225Z" fill="#2F2E41"/>
<path d="M274.722 48.3256C279.168 48.3256 282.772 44.7196 282.772 40.2713C282.772 35.8231 279.168 32.217 274.722 32.217C270.276 32.217 266.673 35.8231 266.673 40.2713C266.673 44.7196 270.276 48.3256 274.722 48.3256Z" fill="#2F2E41"/>
<path d="M267.248 37.3949C267.248 35.4083 267.982 33.492 269.308 32.0141C270.635 30.5362 272.461 29.601 274.435 29.3882C273.31 29.2653 272.173 29.3809 271.097 29.7272C270.02 30.0736 269.029 30.643 268.187 31.3984C267.345 32.1538 266.671 33.0782 266.21 34.1114C265.749 35.1446 265.511 36.2634 265.511 37.3949C265.511 38.5263 265.749 39.6451 266.21 40.6783C266.671 41.7115 267.345 42.6359 268.187 43.3913C269.029 44.1467 270.02 44.7161 271.097 45.0625C272.173 45.4088 273.31 45.5244 274.435 45.4015C272.461 45.1887 270.635 44.2535 269.308 42.7756C267.982 41.2977 267.248 39.3814 267.248 37.3949Z" fill="#2F2E41"/>
<path d="M238.499 159.36H37.2612V299.159H238.499V159.36Z" fill="#3F3D56"/>
<path d="M79.8088 173.167H53.3604V199.631H79.8088V173.167Z" fill="#F2F2F2"/>
<path d="M79.8088 216.315H53.3604V242.779H79.8088V216.315Z" fill="#548FA9"/>
<path d="M79.8088 259.462H53.3604V285.926H79.8088V259.462Z" fill="#F2F2F2"/>
<path d="M218.376 181.509H92.458V183.81H218.376V181.509Z" fill="#F2F2F2"/>
<path d="M131.556 188.988H92.458V191.289H131.556V188.988Z" fill="#F2F2F2"/>
<path d="M218.376 224.656H92.458V226.958H218.376V224.656Z" fill="#F2F2F2"/>
<path d="M131.556 232.136H92.458V234.437H131.556V232.136Z" fill="#F2F2F2"/>
<path d="M218.376 267.804H92.458V270.106H218.376V267.804Z" fill="#F2F2F2"/>
<path d="M131.556 275.283H92.458V277.585H131.556V275.283Z" fill="#F2F2F2"/>
<path d="M569.104 384.84C569.104 396.551 562.147 400.64 553.564 400.64C553.365 400.64 553.167 400.637 552.969 400.633C552.572 400.624 552.177 400.606 551.788 400.579C544.041 400.03 538.024 395.731 538.024 384.84C538.024 373.571 552.416 359.35 553.5 358.295L553.501 358.294C553.543 358.252 553.564 358.232 553.564 358.232C553.564 358.232 569.104 373.13 569.104 384.84Z" fill="#3F516B"/>
<path d="M552.998 398.849L558.682 390.903L552.984 399.722L552.969 400.633C552.572 400.625 552.177 400.606 551.788 400.579L552.4 388.864L552.396 388.772L552.406 388.756L552.464 387.649L546.752 378.808L552.482 386.818L552.496 387.053L552.958 378.202L548.068 369.066L553.018 376.649L553.5 358.296L553.501 358.233V358.294L553.421 372.766L558.29 367.029L553.401 374.013L553.272 381.938L557.819 374.332L553.254 383.105L553.182 387.511L559.78 376.924L553.157 389.048L552.998 398.849Z" fill="#3F3D56"/>
<path d="M64.8596 304.873C64.8596 316.584 57.9026 320.673 49.3193 320.673C49.1205 320.673 48.9217 320.67 48.7243 320.666C48.3267 320.657 47.9319 320.639 47.5429 320.612C39.7964 320.063 33.7791 315.764 33.7791 304.873C33.7791 293.604 48.1708 279.383 49.255 278.328L49.2564 278.327C49.2979 278.285 49.3193 278.265 49.3193 278.265C49.3193 278.265 64.8596 293.163 64.8596 304.873Z" fill="#3F516B"/>
<path d="M48.753 318.881L54.437 310.935L48.7387 319.754L48.7244 320.666C48.3267 320.657 47.932 320.639 47.5429 320.611L48.1551 308.896L48.1508 308.804L48.1608 308.789L48.2195 307.681L42.5068 298.841L48.2366 306.851L48.2509 307.086L48.7129 298.234L43.8227 289.099L48.773 296.681L49.255 278.328L49.2564 278.265V278.327L49.1763 292.799L54.0451 287.061L49.1563 294.045L49.0276 301.971L53.5745 294.364L49.009 303.137L48.9375 307.544L55.5355 296.956L48.9117 309.081L48.753 318.881Z" fill="#3F3D56"/>
</g>
<defs>
<clipPath id="clip0">
<rect width="645" height="402.185" fill="white"/>
</clipPath>
</defs>
</svg>
