<svg width="25" height="24" viewBox="0 0 25 24" fill="none" xmlns="http://www.w3.org/2000/svg">
<g clip-path="url(#clip0)">
<path d="M18.0899 0.00499355L14.9777 0C11.4812 0 9.2216 2.31826 9.2216 5.90637V8.6296H6.0924C5.82199 8.6296 5.60303 8.84882 5.60303 9.11922V13.0649C5.60303 13.3353 5.82224 13.5542 6.0924 13.5542H9.2216V23.5104C9.2216 23.7808 9.44057 23.9998 9.71097 23.9998H13.7937C14.0641 23.9998 14.2831 23.7805 14.2831 23.5104V13.5542H17.9418C18.2122 13.5542 18.4312 13.3353 18.4312 13.0649L18.4327 9.11922C18.4327 8.98939 18.381 8.86505 18.2894 8.77317C18.1978 8.68129 18.0729 8.6296 17.9431 8.6296H14.2831V6.32109C14.2831 5.21152 14.5475 4.64825 15.9929 4.64825L18.0894 4.6475C18.3596 4.6475 18.5785 4.42828 18.5785 4.15813V0.494361C18.5785 0.22446 18.3598 0.00549291 18.0899 0.00499355Z" fill="#333333"/>
</g>
<defs>
<clipPath id="clip0">
<rect width="24" height="23.9998" fill="white" transform="translate(0.0908203)"/>
</clipPath>
</defs>
</svg>
