<svg width="25" height="24" viewBox="0 0 25 24" fill="none" xmlns="http://www.w3.org/2000/svg">
<g clip-path="url(#clip0)">
<path d="M16.5908 0H7.59082C3.44932 0 0.0908203 3.3585 0.0908203 7.5V16.5C0.0908203 20.6415 3.44932 24 7.59082 24H16.5908C20.7323 24 24.0908 20.6415 24.0908 16.5V7.5C24.0908 3.3585 20.7323 0 16.5908 0ZM21.8408 16.5C21.8408 19.395 19.4858 21.75 16.5908 21.75H7.59082C4.69582 21.75 2.34082 19.395 2.34082 16.5V7.5C2.34082 4.605 4.69582 2.25 7.59082 2.25H16.5908C19.4858 2.25 21.8408 4.605 21.8408 7.5V16.5Z" fill="#333333"/>
<path d="M12.0908 6C8.77732 6 6.09082 8.6865 6.09082 12C6.09082 15.3135 8.77732 18 12.0908 18C15.4043 18 18.0908 15.3135 18.0908 12C18.0908 8.6865 15.4043 6 12.0908 6ZM12.0908 15.75C10.0238 15.75 8.34082 14.067 8.34082 12C8.34082 9.9315 10.0238 8.25 12.0908 8.25C14.1578 8.25 15.8408 9.9315 15.8408 12C15.8408 14.067 14.1578 15.75 12.0908 15.75Z" fill="#333333"/>
<path d="M18.5407 6.34949C18.9823 6.34949 19.3402 5.99154 19.3402 5.54999C19.3402 5.10844 18.9823 4.75049 18.5407 4.75049C18.0992 4.75049 17.7412 5.10844 17.7412 5.54999C17.7412 5.99154 18.0992 6.34949 18.5407 6.34949Z" fill="black"/>
</g>
<defs>
<clipPath id="clip0">
<rect width="24" height="24" fill="white" transform="translate(0.0908203)"/>
</clipPath>
</defs>
</svg>
