<svg width="80" height="33" viewBox="0 0 80 33" fill="none" xmlns="http://www.w3.org/2000/svg">
<path d="M77.7266 24.9445C76.3563 27.4304 74.2867 29.4595 71.7741 30.7803C69.1864 32.1751 66.1409 32.8726 62.6375 32.8726H50.2229V0H62.6375C66.1717 0 69.2253 0.681812 71.7982 2.04544C74.2993 3.34134 76.3618 5.34732 77.7266 7.81149C79.1044 10.2909 79.7937 13.1423 79.7947 16.3659C79.7947 19.5913 79.1053 22.4508 77.7266 24.9445ZM69.1708 23.2948C70.8915 21.6522 71.7517 19.3426 71.7513 16.3659C71.7513 13.391 70.8911 11.0819 69.1708 9.43839C67.4499 7.79584 65.0396 6.97455 61.9401 6.97452H58.1738V25.7586H61.9401C65.0401 25.7586 67.4503 24.9373 69.1708 23.2948Z" fill="#FCFCFC"/>
<path d="M46.613 0.231873H37.454L25.4105 32.8726H33.3473L33.9758 31.1418H49.6554L50.2462 32.8726H58.656L46.613 0.231873ZM35.9507 25.7586L42.0095 8.74077L47.7861 25.7586H35.9507Z" fill="#FCFCFC"/>
<path d="M0 32.8725L11.6223 0.232067L21.2138 0.231903L33.2569 32.8727H24.4633L16.6104 8.74074L8.47458 32.8727L0 32.8725Z" fill="#FCFCFC"/>
<path style="mix-blend-mode:multiply" d="M33.9757 31.1418L33.2568 32.8727L29.3337 22.2398L29.8516 20.8357L33.9757 31.1418Z" fill="url(#paint0_linear)"/>
<path style="mix-blend-mode:multiply" opacity="0.7" d="M60.234 32.8732L58.6559 32.874L50.2229 10.0175L60.234 32.8732Z" fill="url(#paint1_linear)"/>
<defs>
<linearGradient id="paint0_linear" x1="31.0765" y1="27.0281" x2="32.3145" y2="26.5775" gradientUnits="userSpaceOnUse">
<stop stop-color="#697084" stop-opacity="0.7"/>
<stop offset="1" stop-color="white" stop-opacity="0"/>
</linearGradient>
<linearGradient id="paint1_linear" x1="54.4813" y1="21.7172" x2="55.9756" y2="21.1734" gradientUnits="userSpaceOnUse">
<stop stop-color="#697084" stop-opacity="0.6"/>
<stop offset="1" stop-color="white" stop-opacity="0"/>
</linearGradient>
</defs>
</svg>
