<svg width="200" height="100" viewBox="0 0 200 100" fill="none" xmlns="http://www.w3.org/2000/svg">
<g clip-path="url(#clip0)">
<path d="M12.7156 100V88.1973L7.48034 97.3294H6.64919L1.41391 88.1973V100H0V85.6223H1.46168L7.06 95.4628L12.6965 85.6223H14.1296V100H12.7156Z" fill="#3F516B"/>
<path d="M61.7151 98.7461V100H52.0757V85.6223H61.5336V86.8763H53.4896V92.0646H60.5018V93.2611H53.4896V98.7461H61.7151Z" fill="#3F516B"/>
<path d="M98.7446 100V85.6222H103.617C104.645 85.6006 105.666 85.7929 106.617 86.187C107.434 86.5381 108.164 87.0641 108.757 87.7282C109.337 88.3931 109.779 89.1677 110.056 90.0064C110.645 91.8813 110.628 93.8947 110.008 95.7594C109.704 96.6015 109.233 97.3732 108.623 98.0281C108.009 98.659 107.27 99.1546 106.454 99.4831C105.551 99.8393 104.587 100.015 103.617 100L98.7446 100ZM109.072 92.792C109.083 91.9828 108.961 91.1774 108.709 90.4085C108.487 89.72 108.126 89.0846 107.648 88.5418C107.178 88.0096 106.593 87.5908 105.938 87.3166C105.204 87.0086 104.413 86.8585 103.617 86.8762H100.159V98.746H103.617C104.427 98.7613 105.231 98.6047 105.977 98.2866C106.632 98.0043 107.213 97.5753 107.677 97.0326C108.149 96.4817 108.503 95.84 108.718 95.1468C108.962 94.3861 109.082 93.5909 109.072 92.792H109.072Z" fill="#3F516B"/>
<path d="M147.543 100V85.6223H148.957V100H147.543Z" fill="#3F516B"/>
<path d="M191.365 85.6223H192.55L198.511 100H197.021L195.158 95.5011H188.719L186.875 100H185.356L191.365 85.6223ZM194.833 94.3907L191.948 87.2879L189.015 94.3907H194.833Z" fill="#3F516B"/>
<path d="M193.931 62.3612C190.512 68.576 185.348 73.6488 179.079 76.9507C172.623 80.4379 165.024 82.1815 156.283 82.1816H125.308V0H156.283C165.101 0 172.72 1.70453 179.139 5.11359C185.38 8.35334 190.526 13.3683 193.931 19.5287C197.368 25.7272 199.088 32.8559 199.091 40.9146C199.091 48.9781 197.371 56.127 193.931 62.3612ZM172.584 58.2369C176.877 54.1306 179.023 48.3565 179.022 40.9146C179.022 33.4775 176.876 27.7047 172.584 23.596C168.29 19.4896 162.276 17.4364 154.543 17.4363H145.146V64.3966H154.543C162.278 64.3966 168.291 62.3434 172.584 58.2369Z" fill="#548FA9"/>
<path d="M116.301 0.57959H93.4488L63.3999 82.1815H83.2025L84.7706 77.8545H123.892L125.366 82.1815H146.349L116.301 0.57959ZM89.698 64.3963L104.815 21.8518L119.228 64.3963H89.698Z" fill="#536E90"/>
<path d="M0 82.1809L28.9981 0.579755L52.9293 0.579346L82.9772 82.1813H61.037L41.4436 21.8514L21.1444 82.1813L0 82.1809Z" fill="#3F516B"/>
<path style="mix-blend-mode:multiply" d="M84.7708 77.8546L82.9773 82.1818L73.189 55.5995L74.4812 52.0894L84.7708 77.8546Z" fill="url(#paint0_linear)"/>
<path style="mix-blend-mode:multiply" opacity="0.7" d="M150.286 82.183L146.349 82.185L125.308 25.0437L150.286 82.183Z" fill="url(#paint1_linear)"/>
</g>
<defs>
<linearGradient id="paint0_linear" x1="77.5373" y1="67.5703" x2="80.6274" y2="66.4478" gradientUnits="userSpaceOnUse">
<stop stop-color="#697084" stop-opacity="0.7"/>
<stop offset="1" stop-color="white" stop-opacity="0"/>
</linearGradient>
<linearGradient id="paint1_linear" x1="135.933" y1="54.2931" x2="139.663" y2="52.9382" gradientUnits="userSpaceOnUse">
<stop stop-color="#697084" stop-opacity="0.6"/>
<stop offset="1" stop-color="white" stop-opacity="0"/>
</linearGradient>
<clipPath id="clip0">
<rect width="199.091" height="100" fill="white"/>
</clipPath>
</defs>
</svg>
