<svg width="25" height="24" viewBox="0 0 25 24" fill="none" xmlns="http://www.w3.org/2000/svg">
<g clip-path="url(#clip0)">
<path d="M24.0908 4.55923C23.2075 4.95064 22.2597 5.21609 21.2638 5.3346C22.2806 4.7257 23.059 3.7599 23.4279 2.61261C22.4741 3.17649 21.4213 3.58594 20.2995 3.8079C19.4012 2.84959 18.1234 2.25269 16.7061 2.25269C13.9871 2.25269 11.7826 4.45727 11.7826 7.17476C11.7826 7.56017 11.826 7.9366 11.91 8.29656C7.81883 8.09107 4.19102 6.13095 1.76298 3.15249C1.33855 3.87837 1.0971 4.72417 1.0971 5.62703C1.0971 7.33523 1.96694 8.84244 3.28671 9.72424C2.47984 9.69726 1.72098 9.4753 1.05663 9.10636V9.16785C1.05663 11.5524 2.75431 13.5425 5.00537 13.9955C4.59294 14.1064 4.15804 14.1679 3.70812 14.1679C3.3902 14.1679 3.08274 14.1364 2.78129 14.0764C3.40816 16.0336 5.22584 17.4568 7.37945 17.4958C5.69526 18.8156 3.57165 19.5999 1.2651 19.5999C0.867684 19.5999 0.476232 19.5759 0.0908203 19.5324C2.26992 20.9317 4.85694 21.7475 7.63741 21.7475C16.6942 21.7475 21.6448 14.2459 21.6448 7.74017L21.6283 7.1028C22.5956 6.41288 23.4324 5.54605 24.0908 4.55923Z" fill="#333333"/>
</g>
<defs>
<clipPath id="clip0">
<rect width="24" height="24" fill="white" transform="translate(0.0908203)"/>
</clipPath>
</defs>
</svg>
