<svg width="25" height="24" viewBox="0 0 25 24" fill="none" xmlns="http://www.w3.org/2000/svg">
<g clip-path="url(#clip0)">
<path d="M12.6658 20.5857C12.6653 20.5857 12.6658 20.5857 12.6658 20.5857C9.93656 20.5857 6.96524 20.4995 3.83499 20.3308C1.98569 20.2294 0.551171 18.8037 0.346977 16.8631C0.00543467 13.6212 0.00543467 10.3485 0.346977 7.13571C0.550741 5.21125 1.98333 3.78555 3.83083 3.66936C9.22945 3.32961 14.7844 3.32961 20.3494 3.66936C22.2185 3.78276 23.6189 5.17482 23.8351 7.13384C24.1757 10.2356 24.1762 13.5078 23.8355 16.8617C23.6387 18.8009 22.2397 20.1948 20.3545 20.3299C17.982 20.4995 15.3951 20.5857 12.6658 20.5857ZM12.0274 4.33588C9.30691 4.33588 6.5684 4.42159 3.88799 4.58985C2.47613 4.67835 1.42145 5.74085 1.26338 7.23289C0.928719 10.3812 0.928719 13.5884 1.26338 16.7667C1.42145 18.2708 2.47477 19.3328 3.88433 19.4102C6.99802 19.578 9.9527 19.6638 12.665 19.6638C15.3726 19.6638 17.9373 19.5785 20.2881 19.4107C21.7106 19.3084 22.7676 18.2468 22.9174 16.7685C23.2521 13.4792 23.2521 10.2719 22.9178 7.23476C22.7533 5.73805 21.6982 4.67513 20.2932 4.58985C17.5298 4.42116 14.7484 4.33588 12.0274 4.33588ZM9.74291 8.73469V15.0612L15.8182 11.9194L9.74291 8.73469Z" fill="#333333"/>
</g>
<defs>
<clipPath id="clip0">
<rect width="24" height="24" fill="white" transform="translate(0.0908203)"/>
</clipPath>
</defs>
</svg>
